# Blender 3.3.0
# www.blender.org
mtllib Floor.mtl
o floor
v -2.997978 -2.987929 3.848387
v 2.993069 -2.987933 3.848384
v 2.993066 -2.987934 -2.212025
v -2.963300 -2.987930 -2.212021
v 1.584176 -2.987932 3.143938
v 2.104382 -2.987933 1.409915
v 0.392034 -2.987932 0.900547
v -0.149847 -2.987931 2.612895
v -1.591254 -2.987930 1.171489
v 0.121093 -2.987931 0.640444
v -0.409953 -2.987931 -1.093578
v -2.122299 -2.987930 -0.551695
vn -0.0000 1.0000 -0.0000
vn -0.0000 -1.0000 -0.0000
s 0
usemtl white
f 2//1 4//1 1//1
f 7//2 5//2 8//2
f 12//2 10//2 9//2
f 2//1 3//1 4//1
f 7//2 6//2 5//2
f 12//2 11//2 10//2
