# Blender 3.3.0
# www.blender.org
mtllib SmallCube.mtl
o short_block
v 1.584177 -1.199721 3.143938
v 2.104383 -1.199722 1.409915
v 0.392035 -1.199721 0.900547
v -0.149846 -1.199720 2.612895
v -0.149847 -2.987931 2.612895
v -0.149846 -1.199720 2.612895
v 0.392035 -1.199721 0.900547
v 0.392034 -2.987932 0.900547
v 1.584176 -2.987932 3.143938
v 1.584177 -1.199721 3.143938
v -0.149846 -1.199720 2.612895
v -0.149847 -2.987931 2.612895
v 2.104382 -2.987933 1.409915
v 2.104383 -1.199722 1.409915
v 1.584177 -1.199721 3.143938
v 1.584176 -2.987932 3.143938
v 0.392034 -2.987932 0.900547
v 0.392035 -1.199721 0.900547
v 2.104383 -1.199722 1.409915
v 2.104382 -2.987933 1.409915
vn -0.0000 1.0000 -0.0000
vn -0.9534 -0.0000 -0.3017
vn -0.2928 -0.0000 0.9562
vn 0.9578 -0.0000 0.2873
vn 0.2851 -0.0000 -0.9585
s 0
usemtl white
f 1//1 3//1 4//1
f 6//2 8//2 5//2
f 10//3 12//3 9//3
f 14//4 16//4 13//4
f 18//5 20//5 17//5
f 1//1 2//1 3//1
f 6//2 7//2 8//2
f 10//3 11//3 12//3
f 14//4 15//4 16//4
f 18//5 19//5 20//5
